<?xml version="1.0" encoding="utf-8"?>
<!-- Generator: Adobe Illustrator 16.0.0, SVG Export Plug-In . SVG Version: 6.00 Build 0)  -->
<!DOCTYPE svg PUBLIC "-//W3C//DTD SVG 1.1//EN" "http://www.w3.org/Graphics/SVG/1.1/DTD/svg11.dtd">
<svg version="1.1" id="Capa_1" xmlns="http://www.w3.org/2000/svg" xmlns:xlink="http://www.w3.org/1999/xlink" x="0px" y="0px"
	 width="83.667px" height="83.334px" viewBox="0 0 83.667 83.334" enable-background="new 0 0 83.667 83.334" xml:space="preserve">
<g>
	<path fill-rule="evenodd" clip-rule="evenodd" d="M2.179,45.717c0-2.318,0-4.637,0-6.955c0.02-0.129,0.056-0.258,0.057-0.386
		c0.003-2.191,0.488-4.3,1.058-6.4c2.451-9.032,7.58-16.235,15.011-21.821c3.774-2.836,8.054-4.692,12.575-6
		c3.02-0.874,6.078-1.466,9.246-1.291c0.704,0.04,1.412,0.003,2.118,0.013c2.544,0.034,5.079,0.116,7.577,0.709
		c6.436,1.529,12.204,4.373,17.214,8.698c5.857,5.057,9.844,11.327,12.066,18.739c0.736,2.458,1.336,4.932,1.357,7.513
		c0.02,2.251,0.047,4.502,0.02,6.753c-0.014,1.021-0.074,2.057-0.246,3.061c-0.674,3.918-1.891,7.665-3.672,11.222
		c-3.137,6.268-7.598,11.372-13.434,15.266c-3.518,2.347-7.336,4.022-11.396,5.177c-1.615,0.459-3.23,0.959-4.912,1.02
		c-2.819,0.103-5.644,0.146-8.466,0.131c-1.339-0.008-2.692-0.124-4.014-0.34c-3.181-0.517-6.226-1.537-9.145-2.88
		c-9.958-4.581-16.822-12.075-20.76-22.272c-0.97-2.514-1.68-5.104-2.048-7.777C2.285,47.172,2.246,46.442,2.179,45.717z
		 M71.014,59.934c0.037-0.046,0.057-0.063,0.068-0.086c0.375-0.75,0.746-1.501,1.127-2.248c2.018-3.959,3.322-8.117,3.545-12.581
		c0.15-2.986,0.123-5.966-0.307-8.93c-0.424-2.909-1.379-5.651-2.617-8.303c-4.063-8.696-10.623-14.711-19.537-18.194
		c-3.18-1.242-6.49-1.849-9.895-1.987c-2.144-0.086-4.294-0.209-6.425,0.09c-4.363,0.613-8.51,1.95-12.354,4.101
		c-6.26,3.501-11.047,8.466-14.258,14.888c-3.051,6.101-4.164,12.568-3.367,19.348c0.419,3.564,1.393,6.985,2.87,10.258
		c0.557,1.233,1.166,2.444,1.761,3.687c0.087-0.069,0.144-0.104,0.188-0.15c1.896-1.937,4.172-3.332,6.541-4.599
		c3.412-1.822,7.016-3.195,10.63-4.541c0.119-0.043,0.329,0.031,0.441,0.121c0.896,0.713,1.772,1.449,2.666,2.166
		c3.587,2.879,7.712,3.625,12.151,2.98c1.773-0.259,3.406-0.999,4.877-1.996c1.43-0.969,2.752-2.094,4.131-3.138
		c0.123-0.094,0.348-0.175,0.475-0.127c3.502,1.306,7,2.624,10.312,4.378c2.311,1.224,4.57,2.523,6.448,4.385
		C70.655,59.622,70.836,59.773,71.014,59.934z"/>
	<path fill-rule="evenodd" clip-rule="evenodd" d="M25.814,32.802c-0.006-7.237,4.713-13.819,11.485-15.705
		c5.161-1.437,9.846-0.286,13.898,3.198c2.928,2.517,4.748,5.742,5.363,9.552c0.542,3.366,0.179,6.687-0.979,9.91
		c-1.375,3.829-3.442,7.194-6.579,9.839c-1.596,1.347-3.371,2.376-5.438,2.821c-2.672,0.576-5.185,0.07-7.554-1.221
		c-2.825-1.539-4.913-3.836-6.573-6.547c-1.67-2.73-2.826-5.662-3.321-8.832C25.962,34.822,25.913,33.808,25.814,32.802z"/>
</g>
</svg>
